ply
format ascii 1.0
comment Created by Open3D
element vertex 100
property double x
property double y
property double z
end_header
32 14 10
78 84 66
95 63 83
86 86 67
25 27 25
87 47 89
29 72 36
29 23 13
10 64 34
30 17 82
69 83 44
91 41 15
10 23 90
59 10 37
23 6 9
58 2 56
92 57 13
26 36 45
72 38 14
99 27 16
52 10 76
50 95 72
41 28 66
49 65 92
23 1 28
4 73 64
34 6 41
56 92 60
25 56 61
96 92 3
42 78 0
5 38 48
39 34 83
11 75 37
63 18 9
90 24 0
13 99 77
40 28 85
49 65 71
92 7 51
94 52 42
73 13 45
46 43 46
23 52 62
72 49 51
91 75 30
84 86 51
87 49 86
82 12 61
60 96 14
25 96 72
94 79 14
37 94 83
87 81 46
41 1 73
21 26 87
24 91 96
84 41 37
43 25 20
92 41 14
26 15 83
91 13 77
82 71 53
45 1 77
15 62 28
8 8 71
6 90 13
32 12 32
21 58 59
65 77 87
60 19 76
53 5 54
47 21 19
77 90 61
96 5 36
86 36 35
74 68 26
70 39 48
89 33 22
59 43 31
79 44 51
42 37 89
40 2 64
59 10 48
29 0 97
54 44 68
56 25 14
74 43 8
67 31 36
81 79 23
15 49 14
17 61 53
90 1 55
13 29 75
26 53 57
46 24 0
60 17 88
6 5 65
89 86 38
2 5 28
